<svg xmlns="http://www.w3.org/2000/svg" width="512" height="512" viewBox="0 0 512 512">
  <g fill="none" stroke-linecap="round">
    <path d="M322 314 432 424" stroke="#000000" stroke-width="82"/>
    <path d="M322 314 432 424" stroke="#ff6233" stroke-width="48"/>
  </g>

  <circle cx="215" cy="207" r="157" fill="#000000"/>
  <circle cx="215" cy="207" r="128" fill="#5b8ee4"/>

  <path d="M117 132c23-38 62-57 104-57 30 0 58 11 79 30-25-11-52-15-80-10-40 7-74 30-96 62-12-5-16-14-7-25Z" fill="#76a9ed"/>

  <path d="M188 111c0-12 10-22 22-22h19c12 0 22 10 22 22v61h61c12 0 22 10 22 22v19c0 12-10 22-22 22h-61v61c0 12-10 22-22 22h-19c-12 0-22-10-22-22v-61h-61c-12 0-22-10-22-22v-19c0-12 10-22 22-22h61v-61Z" fill="#000000"/>
  <path d="M205 121c0-6 5-11 11-11h7c6 0 11 5 11 11v68h68c6 0 11 5 11 11v7c0 6-5 11-11 11h-68v68c0 6-5 11-11 11h-7c-6 0-11-5-11-11v-68h-68c-6 0-11-5-11-11v-7c0-6 5-11 11-11h68v-68Z" fill="#ffffff"/>
</svg>
